<svg xmlns="http://www.w3.org/2000/svg" width="52" height="50" viewBox="0 0 52 50"><g fill="#998B55"><path d="M24.718 28.832c1.808 0 3.28-1.47 3.28-3.279 0-.714-.233-1.373-.62-1.911a3.272 3.272 0 0 0-2.658-1.368 3.276 3.276 0 0 0-2.659 1.367 3.269 3.269 0 0 0-.62 1.912 3.28 3.28 0 0 0 3.277 3.279zM31.878 21.542v-3.158l-.41.002-2.748.009.01 3.158z"/><path d="M24.719 9.174c-9.031 0-16.379 7.348-16.379 16.379s7.348 16.379 16.379 16.379c9.03 0 16.379-7.348 16.379-16.379S33.751 9.174 24.719 9.174zm9.314 14.469v7.626a3.604 3.604 0 0 1-3.6 3.601h-11.43a3.605 3.605 0 0 1-3.601-3.601V19.84a3.605 3.605 0 0 1 3.601-3.601h11.429a3.605 3.605 0 0 1 3.601 3.601v3.803z"/><path d="M29.813 25.553c0 2.809-2.285 5.095-5.095 5.095s-5.095-2.287-5.095-5.095c0-.676.135-1.321.375-1.911h-2.781v7.626c0 .986.8 1.784 1.785 1.784h11.429c.984 0 1.786-.798 1.786-1.784v-7.626h-2.782c.242.59.378 1.235.378 1.911z"/></g></svg>