<svg xmlns="http://www.w3.org/2000/svg" width="52" height="50" viewBox="0 0 52 50"><g fill="#998B55"><path d="M24.718 28.832c1.808 0 3.28-1.47 3.28-3.28 0-.713-.233-1.372-.62-1.91a3.272 3.272 0 0 0-2.658-1.368c-1.095 0-2.062.54-2.66 1.367a3.27 3.27 0 0 0-.62 1.913 3.28 3.28 0 0 0 3.278 3.28zM31.878 21.542v-3.158l-.41.002-2.748.01.01 3.157z"/><path d="M24.72 9.174c-9.032 0-16.38 7.348-16.38 16.38S15.688 41.93 24.72 41.93c9.03 0 16.378-7.348 16.378-16.38S33.75 9.175 24.718 9.175zm9.313 14.47v7.625c0 1.985-1.615 3.6-3.6 3.6h-11.43a3.605 3.605 0 0 1-3.6-3.6V19.84c0-1.986 1.614-3.6 3.6-3.6h11.43c1.984 0 3.6 1.614 3.6 3.6v3.803z"/><path d="M29.813 25.553c0 2.81-2.285 5.095-5.095 5.095s-5.095-2.287-5.095-5.095c0-.676.135-1.32.375-1.91h-2.78v7.625c0 .986.8 1.784 1.784 1.784h11.43c.983 0 1.785-.798 1.785-1.784v-7.626h-2.782c.242.59.378 1.235.378 1.91z"/></g></svg>