<svg xmlns="http://www.w3.org/2000/svg" width="52" height="50" viewBox="0 0 52 50"><g fill="#FE4445"><path d="M23.286 27.935c-.106-.07-.216-.147-.33-.224a3.692 3.692 0 0 0-1.045-.158h-.042c-1.658 0-3.113 1.003-3.113 2.15 0 1.246 1.247 2.22 2.837 2.22 2.098 0 3.16-.725 3.16-2.15 0-.134-.016-.274-.05-.414-.14-.554-.648-.9-1.416-1.423zM22.11 23.588c.002 0 .002 0 0 0 .398 0 .732-.157.992-.454.406-.463.587-1.223.48-2.03-.19-1.442-1.22-2.643-2.296-2.674h-.043c-.38 0-.72.156-.98.45-.4.46-.568 1.183-.465 1.99.19 1.44 1.242 2.684 2.296 2.718h.017z"/><path d="M25.48 8.84c-9.03 0-16.38 7.35-16.38 16.38S16.45 41.6 25.48 41.6s16.38-7.35 16.38-16.38S34.512 8.84 25.48 8.84zm-1.888 24.356a7.16 7.16 0 0 1-1.99.27c-.783 0-1.535-.09-2.236-.268-1.357-.342-2.36-.992-2.828-1.828a2.324 2.324 0 0 1-.304-1.146c0-.41.098-.828.29-1.24.745-1.586 2.705-2.652 4.877-2.652h.063a1.925 1.925 0 0 1-.262-.97c0-.17.023-.34.068-.516-2.277-.05-3.98-1.72-3.98-3.918 0-1.553 1.24-3.065 3.015-3.676a4.932 4.932 0 0 1 1.605-.277h4.87a.384.384 0 0 1 .224.693l-1.09.79a.39.39 0 0 1-.224.07h-.39c.503.604.798 1.464.798 2.43 0 1.067-.54 2.076-1.522 2.845-.758.59-.788.754-.788 1.09.01.187.537.792 1.12 1.204 1.36.96 1.864 1.903 1.864 3.476 0 1.642-1.248 3.062-3.178 3.623zm11-8.354c0 .21-.173.382-.384.382H31.44v2.77c0 .21-.172.383-.38.383h-.79a.384.384 0 0 1-.384-.383v-2.77H27.12a.382.382 0 0 1-.383-.382v-.787c0-.21.172-.384.383-.384h2.766v-2.766c0-.212.172-.382.384-.382h.79c.208 0 .38.17.38.382v2.767h2.768c.21 0 .382.172.382.384v.788z"/></g></svg>