<svg xmlns="http://www.w3.org/2000/svg" width="52" height="50" viewBox="0 0 52 50"><path fill="#29C5F6" d="M24.09 8.728c-9.031 0-16.379 7.348-16.379 16.379 0 9.031 7.348 16.379 16.379 16.379s16.379-7.348 16.379-16.379c0-9.031-7.347-16.379-16.379-16.379zm7.306 12.63c.007.163.011.326.011.489 0 4.982-3.791 10.725-10.727 10.725-2.129 0-4.11-.623-5.778-1.693a7.563 7.563 0 0 0 5.581-1.561 3.772 3.772 0 0 1-3.521-2.618 3.763 3.763 0 0 0 1.702-.063 3.77 3.77 0 0 1-3.022-3.744 3.748 3.748 0 0 0 1.706.471 3.767 3.767 0 0 1-1.676-3.137c0-.692.186-1.339.51-1.896a10.708 10.708 0 0 0 7.77 3.94 3.77 3.77 0 0 1 6.425-3.44 7.529 7.529 0 0 0 2.395-.916 3.785 3.785 0 0 1-1.66 2.086 7.495 7.495 0 0 0 2.165-.593 7.6 7.6 0 0 1-1.881 1.95z"/></svg>