<svg xmlns="http://www.w3.org/2000/svg" width="52" height="50" viewBox="0 0 52 50"><g fill="#FE4445"><path d="M23.286 27.935l-.33-.224a3.692 3.692 0 0 0-1.045-.159h-.043c-1.658 0-3.113 1.003-3.113 2.149 0 1.247 1.247 2.221 2.837 2.221 2.098 0 3.16-.725 3.16-2.149 0-.135-.016-.275-.05-.415-.141-.554-.648-.899-1.416-1.423zM22.111 23.588c.001 0 .001 0 0 0 .397 0 .731-.157.991-.454.406-.463.587-1.223.479-2.03-.188-1.442-1.219-2.643-2.295-2.674l-.043-.001c-.381 0-.721.157-.979.452-.4.458-.569 1.182-.466 1.988.189 1.44 1.242 2.685 2.296 2.719h.017z"/><path d="M25.48 8.841c-9.031 0-16.379 7.348-16.379 16.379s7.348 16.379 16.379 16.379c9.03 0 16.379-7.348 16.379-16.379S34.513 8.841 25.48 8.841zm-1.888 24.355a7.16 7.16 0 0 1-1.991.27c-.782 0-1.534-.09-2.235-.268-1.357-.342-2.36-.992-2.828-1.828a2.324 2.324 0 0 1-.304-1.146c0-.411.098-.828.291-1.241.744-1.585 2.704-2.651 4.876-2.651h.062a1.925 1.925 0 0 1-.262-.971c0-.168.022-.339.067-.515-2.277-.051-3.981-1.719-3.981-3.918 0-1.553 1.241-3.065 3.016-3.676a4.932 4.932 0 0 1 1.605-.277h4.87a.384.384 0 0 1 .224.693l-1.089.789a.39.39 0 0 1-.225.071h-.391c.504.604.799 1.464.799 2.431 0 1.066-.54 2.075-1.522 2.844-.758.591-.788.754-.788 1.091.01.186.537.791 1.121 1.203 1.358.961 1.863 1.903 1.863 3.476.001 1.642-1.248 3.062-3.178 3.623zm10.999-8.354a.383.383 0 0 1-.383.382H31.44v2.77a.383.383 0 0 1-.381.383h-.789a.384.384 0 0 1-.384-.383v-2.77H27.12a.382.382 0 0 1-.383-.382v-.787c0-.211.172-.384.383-.384h2.766v-2.767c0-.212.172-.382.384-.382h.789c.209 0 .381.17.381.382v2.767h2.768c.21 0 .382.171.382.383l.001.788z"/></g></svg>