<svg xmlns="http://www.w3.org/2000/svg" width="52" height="50" viewBox="0 0 52 50"><path fill="#29C5F6" d="M24.09 8.728c-9.03 0-16.38 7.348-16.38 16.38 0 9.03 7.35 16.378 16.38 16.378s16.38-7.348 16.38-16.38c0-9.03-7.348-16.378-16.38-16.378zm7.306 12.63c.007.163.01.326.01.49 0 4.98-3.79 10.724-10.726 10.724-2.13 0-4.11-.623-5.778-1.693.295.034.595.052.9.052a7.563 7.563 0 0 0 4.68-1.614 3.772 3.772 0 0 1-3.52-2.618 3.763 3.763 0 0 0 1.702-.063 3.77 3.77 0 0 1-3.022-3.744c.508.282 1.09.452 1.706.47a3.767 3.767 0 0 1-1.676-3.136c0-.692.186-1.34.51-1.896a10.708 10.708 0 0 0 7.77 3.94 3.77 3.77 0 0 1 6.425-3.44 7.53 7.53 0 0 0 2.395-.915c-.283.88-.88 1.62-1.66 2.086a7.495 7.495 0 0 0 2.165-.592 7.6 7.6 0 0 1-1.88 1.95z"/></svg>