<?xml version="1.0" encoding="utf-8"?>
<!-- Generator: Adobe Illustrator 16.0.0, SVG Export Plug-In . SVG Version: 6.00 Build 0)  -->
<!DOCTYPE svg PUBLIC "-//W3C//DTD SVG 1.1//EN" "http://www.w3.org/Graphics/SVG/1.1/DTD/svg11.dtd">
<svg version="1.1" id="Layer_1" xmlns="http://www.w3.org/2000/svg" xmlns:xlink="http://www.w3.org/1999/xlink" x="0px" y="0px"
	 width="52px" height="50px" viewBox="0 0 52 50" enable-background="new 0 0 52 50" xml:space="preserve">
<g>
	<g>
		<path fill="#5383E9" d="M26.562,7.5c-9.031,0-16.379,7.348-16.379,16.379c0,9.031,7.348,16.379,16.379,16.379
			s16.379-7.348,16.379-16.379C42.941,14.848,35.595,7.5,26.562,7.5z M30.636,24.456h-2.665c0,4.257,0,9.498,0,9.498h-3.948
			c0,0,0-5.19,0-9.498h-1.877v-3.357h1.877v-2.171c0-1.556,0.739-3.985,3.985-3.985l2.926,0.011v3.259c0,0-1.778,0-2.124,0
			s-0.837,0.173-0.837,0.915V21.1h3.008L30.636,24.456z"/>
	</g>
</g>
</svg>
