<svg xmlns="http://www.w3.org/2000/svg" width="114" height="110" viewBox="0 0 114 110"><path fill="#29ABE2" d="M-54.519 67.192l12.599 12.599 23.115-23.115-12.598-12.598-23.116 23.114zm50.364-17.303l-5.36-5.361a7.183 7.183 0 0 1-9.74-9.742l-5.363-5.361a3.6 3.6 0 0 0-5.077 0l-39.051 39.053a3.601 3.601 0 0 0 0 5.076l5.364 5.362a7.181 7.181 0 0 1 9.741 9.743l5.361 5.361a3.6 3.6 0 0 0 5.077 0l39.051-39.052a3.604 3.604 0 0 0-.003-5.079zM-41.92 85.555l-18.359-18.363 28.877-28.876 18.36 18.36-28.878 28.879zM221.485 49.879c6.289 0 11.327-5.075 11.327-11.363 0-6.289-5.038-11.364-11.327-11.364a11.348 11.348 0 0 0-11.364 11.364 11.348 11.348 0 0 0 11.364 11.363zm-30.303 0c6.288 0 11.327-5.075 11.327-11.363 0-6.289-5.039-11.364-11.327-11.364a11.348 11.348 0 0 0-11.364 11.364 11.347 11.347 0 0 0 11.364 11.363zm0 7.576c-8.827 0-26.516 4.432-26.516 13.258v9.469h53.031v-9.469c0-8.827-17.689-13.258-26.515-13.258zm30.303 0c-1.099 0-2.349.075-3.677.189 4.395 3.185 7.465 7.461 7.465 13.069v9.469H248v-9.469c0-8.827-17.688-13.258-26.515-13.258zM81.579 72.526v2.753c0 3.029-2.48 5.51-5.509 5.51H37.509A5.509 5.509 0 0 1 32 75.279v-38.56a5.507 5.507 0 0 1 5.509-5.508H76.07c3.029 0 5.509 2.479 5.509 5.508v2.754H56.79a5.508 5.508 0 0 0-5.509 5.509v22.035a5.509 5.509 0 0 0 5.509 5.509h24.789zM56.79 67.017h27.543V44.982H56.79v22.035zm11.017-6.886c-2.286 0-4.131-1.846-4.131-4.132s1.845-4.132 4.131-4.132c2.287 0 4.132 1.846 4.132 4.132s-1.845 4.132-4.132 4.132z"/></svg>