<svg xmlns="http://www.w3.org/2000/svg" width="114" height="110" viewBox="0 0 114 110"><path fill="#29ABE2" d="M-54.52 67.192l12.6 12.6 23.115-23.116-12.598-12.598-23.116 23.114zM-4.154 49.89l-5.36-5.362a7.183 7.183 0 0 1-9.74-9.742l-5.362-5.36a3.6 3.6 0 0 0-5.077 0l-39.05 39.052a3.6 3.6 0 0 0 0 5.076l5.363 5.362a7.18 7.18 0 0 1 9.74 9.743l5.363 5.36a3.6 3.6 0 0 0 5.077 0l39.05-39.052a3.604 3.604 0 0 0-.002-5.08zM-41.92 85.554l-18.36-18.363L-31.4 38.316l18.36 18.36-28.878 28.88zM221.485 49.88c6.29 0 11.327-5.076 11.327-11.364 0-6.29-5.038-11.364-11.327-11.364a11.348 11.348 0 0 0-11.364 11.364 11.348 11.348 0 0 0 11.365 11.363zm-30.303 0c6.288 0 11.327-5.076 11.327-11.364 0-6.29-5.04-11.364-11.328-11.364a11.348 11.348 0 0 0-11.364 11.364 11.347 11.347 0 0 0 11.364 11.363zm0 7.575c-8.827 0-26.516 4.432-26.516 13.258v9.47h53.03v-9.47c0-8.827-17.688-13.258-26.514-13.258zm30.303 0c-1.1 0-2.35.075-3.677.19 4.395 3.184 7.465 7.46 7.465 13.068v9.47H248v-9.47c0-8.827-17.688-13.258-26.515-13.258zM81.58 72.526v2.753c0 3.028-2.48 5.51-5.51 5.51H37.51A5.51 5.51 0 0 1 32 75.28V36.72a5.507 5.507 0 0 1 5.51-5.51h38.56c3.03 0 5.51 2.48 5.51 5.51v2.753H56.79a5.508 5.508 0 0 0-5.51 5.51v22.034a5.51 5.51 0 0 0 5.51 5.51h24.79zm-24.79-5.51h27.543V44.983H56.79v22.035zm11.017-6.885c-2.286 0-4.13-1.845-4.13-4.13s1.844-4.133 4.13-4.133c2.287 0 4.132 1.846 4.132 4.132s-1.846 4.13-4.133 4.13z"/></svg>