<svg xmlns="http://www.w3.org/2000/svg" width="114" height="110" viewBox="0 0 114 110"><path fill="#29ABE2" d="M-54.52 67.192l12.6 12.6 23.115-23.116-12.598-12.598-23.116 23.114zM-4.154 49.89l-5.36-5.362a7.183 7.183 0 0 1-9.74-9.742l-5.362-5.36a3.6 3.6 0 0 0-5.077 0l-39.05 39.052a3.6 3.6 0 0 0 0 5.076l5.363 5.362a7.18 7.18 0 0 1 9.74 9.743l5.363 5.36a3.6 3.6 0 0 0 5.077 0l39.05-39.052a3.604 3.604 0 0 0-.002-5.08zM-41.92 85.554l-18.36-18.363L-31.4 38.316l18.36 18.36-28.878 28.88zM72.15 51.545c6.29 0 11.328-5.075 11.328-11.363 0-6.29-5.038-11.364-11.327-11.364a11.348 11.348 0 0 0-11.363 11.364A11.35 11.35 0 0 0 72.15 51.545zm-30.3 0c6.287 0 11.326-5.075 11.326-11.363 0-6.29-5.04-11.364-11.327-11.364a11.348 11.348 0 0 0-11.365 11.364A11.347 11.347 0 0 0 41.85 51.545zm0 7.576c-8.828 0-26.517 4.433-26.517 13.26v9.468h53.03v-9.47c0-8.825-17.69-13.257-26.514-13.257zm30.3 0c-1.098 0-2.348.076-3.676.19 4.395 3.185 7.465 7.46 7.465 13.07v9.468h22.727v-9.47c0-8.825-17.69-13.257-26.516-13.257z"/></svg>