<svg xmlns="http://www.w3.org/2000/svg" width="114" height="110" viewBox="0 0 114 110"><path fill="#29ABE2" d="M-54.519 67.192l12.599 12.599 23.115-23.115-12.598-12.598-23.116 23.114zm50.364-17.303l-5.36-5.361a7.183 7.183 0 0 1-9.74-9.742l-5.363-5.361a3.6 3.6 0 0 0-5.077 0l-39.051 39.053a3.601 3.601 0 0 0 0 5.076l5.364 5.362a7.181 7.181 0 0 1 9.741 9.743l5.361 5.361a3.6 3.6 0 0 0 5.077 0l39.051-39.052a3.604 3.604 0 0 0-.003-5.079zM-41.92 85.555l-18.359-18.363 28.877-28.876 18.36 18.36-28.878 28.879zM72.151 51.545c6.289 0 11.327-5.075 11.327-11.363 0-6.289-5.038-11.364-11.327-11.364a11.348 11.348 0 0 0-11.364 11.364 11.349 11.349 0 0 0 11.364 11.363zm-30.302 0c6.288 0 11.327-5.075 11.327-11.363 0-6.289-5.039-11.364-11.327-11.364a11.348 11.348 0 0 0-11.364 11.364 11.347 11.347 0 0 0 11.364 11.363zm0 7.576c-8.827 0-26.516 4.432-26.516 13.258v9.469h53.031v-9.469c0-8.826-17.69-13.258-26.515-13.258zm30.302 0c-1.099 0-2.349.075-3.677.189 4.395 3.185 7.465 7.461 7.465 13.069v9.469h22.728v-9.469c0-8.826-17.689-13.258-26.516-13.258z"/></svg>