<svg xmlns="http://www.w3.org/2000/svg" width="114" height="110" viewBox="0 0 114 110"><path fill="#29ABE2" d="M42.481 63.525l12.599 12.6L78.195 53.01 65.598 40.412 42.481 63.525zm50.364-17.302l-5.36-5.361a7.183 7.183 0 0 1-9.74-9.742l-5.363-5.361a3.6 3.6 0 0 0-5.077 0L28.254 64.812a3.601 3.601 0 0 0 0 5.076l5.364 5.362a7.182 7.182 0 0 1 9.741 9.742l5.361 5.362a3.6 3.6 0 0 0 5.077 0l39.051-39.053a3.603 3.603 0 0 0-.003-5.078zM55.08 81.888L36.721 63.525l28.877-28.876 18.36 18.36L55.08 81.888z"/></svg>