<svg xmlns="http://www.w3.org/2000/svg" width="125" height="26" viewBox="0 0 125 26"><path d="M12.758 15.83c0-.66-.216-1.166-.646-1.517-.43-.35-1.213-.723-2.348-1.122-2.292-.743-3.992-1.535-5.104-2.377-1.113-.84-1.668-2.05-1.668-3.634 0-1.548.647-2.8 1.94-3.754C6.226 2.47 7.87 1.992 9.866 1.992c2.105 0 3.8.493 5.086 1.478 1.285.984 1.906 2.373 1.864 4.167l-.026.076h-4.16c0-.87-.237-1.503-.71-1.896-.473-.392-1.19-.59-2.143-.59-.78 0-1.392.19-1.84.572-.447.378-.672.847-.672 1.406 0 .54.23.974.692 1.3.46.325 1.32.733 2.58 1.224 2.14.634 3.76 1.408 4.858 2.322 1.1.912 1.648 2.163 1.648 3.754 0 1.622-.633 2.893-1.902 3.81-1.268.92-2.95 1.377-5.047 1.377-2.09 0-3.858-.493-5.308-1.48-1.45-.983-2.154-2.534-2.112-4.645l.025-.076H6.87c0 1.072.265 1.836.793 2.29.528.45 1.338.675 2.43.675.895 0 1.562-.177 2.003-.53a1.71 1.71 0 0 0 .662-1.397zM30.534 14.156c0 2.062-.466 3.718-1.396 4.966-.93 1.246-2.24 1.87-3.932 1.87-.66 0-1.245-.127-1.756-.38a3.94 3.94 0 0 1-1.34-1.104V26h-4.286V7h4.047L22 8.5c.38-.56.834-.99 1.362-1.294.53-.305 1.135-.457 1.82-.457 1.7 0 3.017.654 3.952 1.964.934 1.312 1.4 3.037 1.4 5.175v.266zm-4.274-.267c0-1.16-.17-2.09-.507-2.79-.338-.704-.88-1.055-1.624-1.055-.483 0-.892.09-1.226.267a1.984 1.984 0 0 0-.793.773v5.733c.205.296.473.515.808.658.333.144.746.216 1.236.216.752 0 1.29-.31 1.617-.932.327-.62.49-1.49.49-2.605v-.266zM30.554 13.737c0-2.063.583-3.743 1.75-5.042C33.472 7.398 35.1 6.75 37.19 6.75c2.096 0 3.727.648 4.893 1.945 1.167 1.3 1.75 2.98 1.75 5.042v.266c0 2.072-.583 3.753-1.75 5.05-1.167 1.29-2.79 1.94-4.87 1.94-2.105 0-3.74-.65-4.91-1.94-1.166-1.297-1.75-2.978-1.75-5.05v-.266zm4.288.266c0 1.15.18 2.053.538 2.707.36.655.97.983 1.833.983.837 0 1.438-.328 1.802-.99.363-.66.545-1.56.545-2.7v-.266c0-1.115-.182-2.01-.545-2.683-.364-.672-.973-1.008-1.826-1.008-.848 0-1.45.34-1.81 1.015-.36.677-.538 1.57-.538 2.677v.266zM48.37 7l.165 1.93a4.964 4.964 0 0 1 1.662-1.605 4.31 4.31 0 0 1 2.207-.576c1.345 0 2.395.456 3.152 1.37.756.91 1.135 2.363 1.135 4.35v8.255h-4.286v-8.27c0-.87-.14-1.49-.418-1.856-.28-.37-.685-.553-1.217-.553-.46 0-.87.08-1.232.24-.364.162-.668.39-.913.686v9.752H44.35V7h4.02zM62.747 17.428h6.24v3.297H57.332V18.34l6.1-8.04h-5.834V7H68.86v2.31l-6.113 8.118zM69.006 13.737c0-2.063.586-3.743 1.752-5.042 1.165-1.297 2.794-1.946 4.884-1.946 2.097 0 3.73.648 4.896 1.945 1.166 1.3 1.75 2.98 1.75 5.042v.266c0 2.072-.584 3.753-1.75 5.05-1.167 1.29-2.79 1.94-4.872 1.94-2.104 0-3.742-.65-4.907-1.94-1.167-1.297-1.753-2.978-1.753-5.05v-.266zm4.287.266c0 1.15.18 2.053.54 2.707.36.655.97.983 1.832.983.84 0 1.438-.328 1.802-.99.364-.66.546-1.56.546-2.7v-.266c0-1.115-.182-2.01-.546-2.683-.364-.672-.97-1.008-1.825-1.008-.848 0-1.45.34-1.808 1.015-.36.677-.54 1.57-.54 2.677v.266zM90.463 10.656l-1.395-.014c-.493 0-.894.09-1.207.272a1.69 1.69 0 0 0-.695.768v9.042h-4.288V7h4.034l.153 2.02c.287-.72.668-1.277 1.14-1.675a2.508 2.508 0 0 1 1.663-.596 3.158 3.158 0 0 1 1 .15l-.403 3.756z"/><path fill="#00838D" d="M100.742 15.184h.076L104.99 2.26h5.67v18.465h-4.286V8.83l-.075-.014-4.072 11.908h-2.88L95.35 8.994l-.074.013v11.718H90.99V2.26h5.618l4.134 12.924zM118.14 20.992c-2.08 0-3.71-.63-4.89-1.89-1.18-1.26-1.77-2.855-1.77-4.782v-.482c0-2.096.555-3.805 1.667-5.125 1.113-1.318 2.72-1.973 4.826-1.965 1.852 0 3.288.554 4.306 1.66 1.018 1.11 1.528 2.627 1.528 4.554v2.246h-7.863l-.026.075c.066.717.333 1.3.8 1.743.464.444 1.13.666 2.003.666.82 0 1.502-.066 2.048-.2.547-.138 1.17-.353 1.87-.648l1.028 2.61c-.59.433-1.387.797-2.383 1.093-.998.296-2.048.445-3.145.445zm-.166-10.946c-.686 0-1.19.217-1.515.653-.326.435-.515 1.025-.566 1.77l.025.062h3.703v-.33c0-.71-.124-1.246-.375-1.61-.25-.364-.674-.546-1.274-.546z"/></svg>