<svg xmlns="http://www.w3.org/2000/svg" width="125" height="26" viewBox="0 0 125 26"><path d="M12.758 15.83c0-.659-.216-1.166-.646-1.517-.431-.351-1.213-.723-2.348-1.122-2.292-.744-3.992-1.536-5.104-2.378-1.113-.841-1.668-2.051-1.668-3.634 0-1.547.647-2.799 1.94-3.753C6.226 2.47 7.87 1.992 9.866 1.992c2.105 0 3.8.493 5.086 1.478 1.285.984 1.906 2.373 1.864 4.167l-.026.076h-4.16c0-.87-.237-1.503-.711-1.896-.472-.392-1.188-.589-2.142-.589-.779 0-1.392.19-1.84.571-.447.379-.672.848-.672 1.407 0 .541.231.974.692 1.299.461.326 1.32.734 2.581 1.225 2.139.634 3.759 1.408 4.857 2.322 1.099.912 1.648 2.163 1.648 3.754 0 1.622-.633 2.893-1.902 3.81-1.269.919-2.951 1.377-5.048 1.377-2.089 0-3.858-.493-5.308-1.479-1.451-.984-2.154-2.535-2.112-4.646l.025-.076h4.173c0 1.072.264 1.836.792 2.289.528.452 1.338.676 2.429.676.896 0 1.563-.177 2.004-.53a1.71 1.71 0 0 0 .662-1.397zM30.534 14.156c0 2.062-.466 3.718-1.396 4.966-.929 1.246-2.241 1.87-3.932 1.87-.659 0-1.245-.127-1.756-.381a3.94 3.94 0 0 1-1.339-1.103V26h-4.287V7.001h4.047l.128 1.499c.38-.559.835-.991 1.363-1.294.529-.305 1.135-.457 1.821-.457 1.699 0 3.016.655 3.951 1.965.934 1.312 1.401 3.037 1.401 5.175v.267zm-4.274-.267c0-1.158-.169-2.089-.507-2.79-.338-.703-.879-1.054-1.624-1.054-.482 0-.891.089-1.225.267a1.984 1.984 0 0 0-.793.773v5.733c.204.296.472.515.807.658.333.144.746.216 1.236.216.752 0 1.291-.309 1.617-.932.326-.621.489-1.491.489-2.605v-.266zM30.554 13.737c0-2.063.583-3.743 1.75-5.042 1.168-1.297 2.796-1.946 4.885-1.946 2.097 0 3.728.649 4.894 1.946 1.167 1.299 1.75 2.979 1.75 5.042v.266c0 2.072-.583 3.753-1.75 5.049-1.167 1.292-2.789 1.94-4.87 1.94-2.105 0-3.741-.648-4.909-1.94-1.167-1.296-1.75-2.977-1.75-5.049v-.266zm4.288.266c0 1.151.179 2.053.538 2.707.36.655.971.983 1.833.983.837 0 1.438-.328 1.802-.989.363-.66.545-1.56.545-2.701v-.266c0-1.115-.182-2.011-.545-2.683-.364-.672-.973-1.008-1.826-1.008-.847 0-1.449.339-1.809 1.015-.359.676-.538 1.569-.538 2.676v.266zM48.37 7.001l.165 1.928a4.964 4.964 0 0 1 1.662-1.604 4.309 4.309 0 0 1 2.207-.576c1.345 0 2.395.457 3.152 1.37.756.912 1.135 2.364 1.135 4.35v8.256h-4.287v-8.269c0-.87-.14-1.49-.418-1.857-.279-.368-.685-.552-1.217-.552-.458 0-.868.081-1.231.241a2.454 2.454 0 0 0-.913.685v9.752H44.35V7.001h4.02zM62.747 17.428h6.24v3.297H57.332v-2.384l6.099-8.042h-5.833V7.001H68.86V9.31l-6.113 8.118zM69.006 13.737c0-2.063.586-3.743 1.752-5.042 1.165-1.297 2.794-1.946 4.884-1.946 2.097 0 3.729.649 4.896 1.946 1.166 1.299 1.749 2.979 1.749 5.042v.266c0 2.072-.583 3.753-1.749 5.049-1.167 1.292-2.791 1.94-4.872 1.94-2.104 0-3.742-.648-4.907-1.94-1.166-1.296-1.752-2.977-1.752-5.049v-.266zm4.287.266c0 1.151.181 2.053.541 2.707.358.655.969.983 1.831.983.839 0 1.438-.328 1.802-.989.364-.66.546-1.56.546-2.701v-.266c0-1.115-.182-2.011-.546-2.683-.364-.672-.971-1.008-1.825-1.008-.848 0-1.449.339-1.808 1.015-.36.676-.541 1.569-.541 2.676v.266zM90.463 10.656l-1.395-.014c-.493 0-.894.091-1.207.272a1.689 1.689 0 0 0-.696.768v9.042h-4.288V7.001h4.034l.152 2.018c.287-.718.668-1.276 1.141-1.674a2.508 2.508 0 0 1 1.662-.596 3.158 3.158 0 0 1 1.001.151l-.404 3.756z"/><path fill="#00838D" d="M100.742 15.184h.076L104.99 2.26h5.671v18.465h-4.287V8.829l-.075-.013-4.071 11.908h-2.881l-3.995-11.73-.074.013v11.718H90.99V2.259h5.618l4.134 12.925zM118.14 20.992c-2.08 0-3.711-.631-4.89-1.891-1.179-1.258-1.771-2.854-1.771-4.781v-.482c0-2.096.556-3.805 1.668-5.125 1.113-1.318 2.721-1.973 4.826-1.965 1.852 0 3.288.554 4.306 1.661 1.019 1.109 1.529 2.626 1.529 4.553v2.246h-7.863l-.026.075c.067.717.334 1.3.801 1.743.464.444 1.131.666 2.003.666.819 0 1.502-.066 2.048-.201a13.176 13.176 0 0 0 1.87-.647l1.027 2.611c-.591.432-1.387.796-2.383 1.092-.998.296-2.048.445-3.145.445zm-.166-10.946c-.686 0-1.189.217-1.515.653-.325.436-.514 1.026-.565 1.77l.025.063h3.704v-.33c0-.71-.124-1.246-.375-1.611-.249-.363-.674-.545-1.274-.545z"/></svg>