<svg xmlns="http://www.w3.org/2000/svg" width="99.334" height="94" viewBox="0 0 99.334 94"><g fill="#29ABE2"><path d="M85.925 13.665a1.295 1.295 0 0 0-1.312-1.313c-.684.012-16.801.386-27.178 10.764l-13.159 13.16c-3.06-1.078-13.48-3.101-28.149 11.568a1.294 1.294 0 0 0 .002 1.827c.385.383.98.491 1.482.245.1-.049 9.453-4.568 14.42-1.395l-3.258 3.256a1.31 1.31 0 0 0-.203.266c-.137.237-3.287 5.897 4.241 13.423 7.525 7.528 13.187 4.378 13.423 4.241a1.29 1.29 0 0 0 .265-.204l3.256-3.256c3.173 4.966-1.345 14.319-1.394 14.42a1.29 1.29 0 0 0 .268 1.504 1.29 1.29 0 0 0 1.876-.096C65.095 67.444 63.079 57.054 62 54l13.16-13.159c10.377-10.376 10.753-26.493 10.765-27.176zM69.217 39.322a7.254 7.254 0 1 1-10.259-10.259 7.254 7.254 0 0 1 10.259 10.259z"/><path d="M32.703 73.21c-2.548.443-5.175.622-7.757.579-.221-.004-.445-.269-.445-.447a60.86 60.86 0 0 1 .089-3.066c.072-1.294.179-2.594.368-3.877.334-2.245.84-4.446 1.677-6.561.115-.288.242-.569.347-.862-2.349 1.005-4.182 3.005-5.474 5.163-1.258 2.098-2.07 4.443-2.521 6.841a25.144 25.144 0 0 0-.426 4.292c-.01.796-.061 1.76.216 2.522.393 1.084 1.4 1.805 2.541 1.883 1.025.07 2.054.055 3.08-.012 4.661-.308 9.644-1.93 12.917-5.4.806-.899 1.508-1.85 1.997-2.96-1.165.429-2.296.904-3.498 1.227a34.215 34.215 0 0 1-3.111.678z"/></g></svg>