<svg xmlns="http://www.w3.org/2000/svg" width="109" height="108.5" viewBox="0 0 109 108.5"><circle fill="#FBB03B" cx="53.643" cy="53.413" r="50.364"/><path opacity=".08" d="M53.643 3.05c27.815 0 50.364 22.548 50.364 50.363 0 27.816-22.55 50.364-50.364 50.364V3.05z"/><g fill="#FFF"><path d="M83.243 26.664a1.115 1.115 0 0 0-1.132-1.133c-.59.01-14.498.334-23.453 9.29L47.3 46.178c-2.64-.93-11.633-2.676-24.293 9.983a1.117 1.117 0 0 0 .002 1.577c.33.33.846.424 1.278.21.086-.04 8.158-3.94 12.444-1.203l-2.812 2.81a1.14 1.14 0 0 0-.175.23c-.118.204-2.837 5.088 3.66 11.583 6.494 6.497 11.38 3.778 11.584 3.66.083-.048.16-.107.228-.175l2.81-2.81c2.738 4.286-1.16 12.358-1.202 12.445a1.112 1.112 0 0 0 .23 1.3 1.113 1.113 0 0 0 1.56-.02l.06-.064c12.59-12.627 10.852-21.594 9.92-24.23L73.953 50.12c8.955-8.956 9.28-22.866 9.29-23.454zm-14.42 22.14a6.26 6.26 0 1 1-8.853-8.853 6.26 6.26 0 0 1 8.854 8.855z"/><path d="M37.312 78.052a35.84 35.84 0 0 1-6.694.5c-.19-.003-.384-.232-.384-.386 0-.337.01-.83.018-1.167.012-.495.032-.988.06-1.48a36.76 36.76 0 0 1 .317-3.346c.287-1.938.724-3.837 1.445-5.662.1-.248.21-.49.3-.744-2.027.867-3.61 2.594-4.725 4.456-1.085 1.81-1.786 3.834-2.176 5.903-.23 1.22-.35 2.463-.367 3.704-.01.688-.053 1.52.187 2.178.34.935 1.208 1.557 2.192 1.625.885.06 1.772.047 2.658-.01 4.022-.265 8.322-1.665 11.147-4.66.696-.776 1.303-1.596 1.725-2.555-1.006.37-1.98.78-3.02 1.06-.886.238-1.778.427-2.683.584z"/></g></svg>