<svg xmlns="http://www.w3.org/2000/svg" width="109" height="108.5" viewBox="0 0 109 108.5"><circle fill="#FBB03B" cx="53.643" cy="53.413" r="50.364"/><path opacity=".08" d="M53.643 3.05c27.815 0 50.364 22.548 50.364 50.363 0 27.816-22.549 50.364-50.364 50.364V3.05z"/><g fill="#FFF"><path d="M83.243 26.664a1.115 1.115 0 0 0-1.132-1.133c-.59.01-14.499.333-23.454 9.29L47.301 46.177c-2.641-.93-11.634-2.676-24.294 9.983a1.117 1.117 0 0 0 .002 1.577c.332.331.847.424 1.279.211.086-.042 8.158-3.942 12.444-1.204l-2.812 2.81a1.14 1.14 0 0 0-.175.229c-.118.205-2.837 5.089 3.66 11.584 6.494 6.497 11.38 3.778 11.584 3.661.084-.049.16-.108.229-.176l2.81-2.81c2.738 4.286-1.16 12.358-1.202 12.445a1.112 1.112 0 0 0 .231 1.299 1.113 1.113 0 0 0 1.558-.018c.022-.021.042-.043.062-.065 12.59-12.627 10.851-21.594 9.919-24.229l11.357-11.356c8.955-8.956 9.28-22.866 9.29-23.454zM68.824 48.805a6.26 6.26 0 1 1-8.854-8.854 6.26 6.26 0 0 1 8.854 8.854z"/><path d="M37.312 78.052a35.84 35.84 0 0 1-6.694.5c-.19-.003-.384-.232-.384-.386 0-.337.009-.831.018-1.167.012-.494.032-.987.059-1.479.062-1.117.154-2.239.318-3.346.288-1.938.725-3.837 1.446-5.662.1-.248.209-.491.3-.744-2.027.867-3.609 2.594-4.725 4.456-1.085 1.81-1.786 3.834-2.176 5.903a21.627 21.627 0 0 0-.367 3.704c-.009.687-.053 1.519.187 2.177.339.935 1.208 1.557 2.192 1.625a19.98 19.98 0 0 0 2.658-.01c4.022-.265 8.322-1.665 11.147-4.66.695-.776 1.302-1.596 1.724-2.555-1.006.37-1.981.78-3.019 1.059-.887.239-1.779.428-2.684.585z"/></g></svg>