<svg xmlns="http://www.w3.org/2000/svg" width="99.334" height="94" viewBox="0 0 99.334 94"><g fill="#29ABE2"><path d="M85.925 13.665a1.295 1.295 0 0 0-1.312-1.313c-.684.012-16.8.386-27.178 10.764l-13.16 13.16c-3.06-1.078-13.48-3.1-28.148 11.568a1.294 1.294 0 0 0 .002 1.827c.384.384.98.492 1.48.246.1-.05 9.454-4.568 14.42-1.395l-3.257 3.257c-.08.08-.147.17-.203.266-.137.237-3.287 5.897 4.24 13.423 7.526 7.528 13.188 4.378 13.424 4.24a1.29 1.29 0 0 0 .265-.203l3.255-3.256c3.173 4.966-1.345 14.32-1.394 14.42a1.29 1.29 0 0 0 .27 1.504 1.29 1.29 0 0 0 1.875-.095C65.095 67.445 63.08 57.055 62 54l13.16-13.16C85.537 30.466 85.913 14.35 85.925 13.666zM69.217 39.322a7.254 7.254 0 1 1-10.26-10.26 7.254 7.254 0 0 1 10.26 10.26z"/><path d="M32.703 73.21c-2.548.443-5.175.622-7.757.58-.22-.005-.445-.27-.445-.448a60.86 60.86 0 0 1 .09-3.066c.072-1.294.18-2.594.368-3.877.334-2.246.84-4.447 1.677-6.562.115-.288.242-.57.347-.862-2.35 1.005-4.182 3.005-5.474 5.163-1.258 2.097-2.07 4.442-2.52 6.84a25.144 25.144 0 0 0-.427 4.292c-.01.796-.06 1.76.217 2.522.393 1.084 1.4 1.805 2.54 1.883 1.026.07 2.055.055 3.08-.012 4.662-.308 9.645-1.93 12.918-5.4.806-.9 1.508-1.85 1.997-2.96-1.165.43-2.296.904-3.498 1.227-1.03.278-2.063.497-3.11.678z"/></g></svg>