<?xml version="1.0" encoding="utf-8"?>
<!-- Generator: Adobe Illustrator 16.0.0, SVG Export Plug-In . SVG Version: 6.00 Build 0)  -->
<!DOCTYPE svg PUBLIC "-//W3C//DTD SVG 1.1//EN" "http://www.w3.org/Graphics/SVG/1.1/DTD/svg11.dtd">
<svg version="1.1" id="Layer_1" xmlns="http://www.w3.org/2000/svg" xmlns:xlink="http://www.w3.org/1999/xlink" x="0px" y="0px"
	 width="52px" height="50px" viewBox="0 0 52 50" enable-background="new 0 0 52 50" xml:space="preserve">
<g>
	<g>
		<g>
			<path fill="#998B55" d="M24.718,28.832c1.808,0,3.28-1.47,3.28-3.279c0-0.714-0.233-1.373-0.62-1.911
				c-0.596-0.827-1.564-1.368-2.658-1.368c-1.095,0-2.062,0.541-2.659,1.367c-0.388,0.539-0.619,1.198-0.62,1.912
				C21.438,27.361,22.91,28.832,24.718,28.832z"/>
			<polygon fill="#998B55" points="31.878,21.542 31.878,18.793 31.878,18.384 31.468,18.386 28.72,18.395 28.73,21.553 			"/>
			<path fill="#998B55" d="M24.719,9.174c-9.031,0-16.379,7.348-16.379,16.379s7.348,16.379,16.379,16.379
				c9.03,0,16.379-7.348,16.379-16.379S33.751,9.174,24.719,9.174z M34.033,23.643v7.626c0,1.986-1.615,3.601-3.6,3.601h-11.43
				c-1.985,0-3.601-1.615-3.601-3.601v-7.626v-3.803c0-1.986,1.615-3.601,3.601-3.601h11.429c1.985,0,3.601,1.615,3.601,3.601
				V23.643z"/>
			<path fill="#998B55" d="M29.813,25.553c0,2.809-2.285,5.095-5.095,5.095s-5.095-2.287-5.095-5.095
				c0-0.676,0.135-1.321,0.375-1.911h-2.781v7.626c0,0.986,0.8,1.784,1.785,1.784h11.429c0.984,0,1.786-0.798,1.786-1.784v-7.626
				h-2.782C29.677,24.232,29.813,24.877,29.813,25.553z"/>
		</g>
	</g>
</g>
</svg>
