<?xml version="1.0" encoding="utf-8"?>
<!-- Generator: Adobe Illustrator 16.0.0, SVG Export Plug-In . SVG Version: 6.00 Build 0)  -->
<!DOCTYPE svg PUBLIC "-//W3C//DTD SVG 1.1//EN" "http://www.w3.org/Graphics/SVG/1.1/DTD/svg11.dtd">
<svg version="1.1" id="Layer_1" xmlns="http://www.w3.org/2000/svg" xmlns:xlink="http://www.w3.org/1999/xlink" x="0px" y="0px"
	 width="52px" height="50px" viewBox="0 0 52 50" enable-background="new 0 0 52 50" xml:space="preserve">
<g>
	<g>
		<g>
			<path fill="#FE4445" d="M23.286,27.935c-0.106-0.071-0.216-0.147-0.33-0.224c-0.331-0.102-0.684-0.155-1.045-0.159h-0.043
				c-1.658,0-3.113,1.003-3.113,2.149c0,1.247,1.247,2.221,2.837,2.221c2.098,0,3.16-0.725,3.16-2.149
				c0-0.135-0.016-0.275-0.05-0.415C24.561,28.804,24.054,28.459,23.286,27.935z"/>
			<path fill="#FE4445" d="M22.111,23.588C22.112,23.588,22.112,23.588,22.111,23.588c0.397,0,0.731-0.157,0.991-0.454
				c0.406-0.463,0.587-1.223,0.479-2.03c-0.188-1.442-1.219-2.643-2.295-2.674l-0.043-0.001c-0.381,0-0.721,0.157-0.979,0.452
				c-0.4,0.458-0.569,1.182-0.466,1.988c0.189,1.44,1.242,2.685,2.296,2.719H22.111L22.111,23.588z"/>
			<path fill="#FE4445" d="M25.48,8.841c-9.031,0-16.379,7.348-16.379,16.379s7.348,16.379,16.379,16.379
				c9.03,0,16.379-7.348,16.379-16.379S34.513,8.841,25.48,8.841z M23.592,33.196c-0.618,0.179-1.288,0.27-1.991,0.27
				c-0.782,0-1.534-0.09-2.235-0.268c-1.357-0.342-2.36-0.992-2.828-1.828c-0.202-0.361-0.304-0.747-0.304-1.146
				c0-0.411,0.098-0.828,0.291-1.241c0.744-1.585,2.704-2.651,4.876-2.651c0.021,0,0.042,0,0.062,0
				c-0.177-0.311-0.262-0.632-0.262-0.971c0-0.168,0.022-0.339,0.067-0.515c-2.277-0.051-3.981-1.719-3.981-3.918
				c0-1.553,1.241-3.065,3.016-3.676c0.531-0.183,1.073-0.277,1.605-0.277h4.87c0.165,0,0.313,0.108,0.364,0.266
				c0.051,0.157-0.006,0.33-0.14,0.427l-1.089,0.789c-0.065,0.046-0.144,0.071-0.225,0.071h-0.391
				c0.504,0.604,0.799,1.464,0.799,2.431c0,1.066-0.54,2.075-1.522,2.844c-0.758,0.591-0.788,0.754-0.788,1.091
				c0.01,0.186,0.537,0.791,1.121,1.203c1.358,0.961,1.863,1.903,1.863,3.476C26.771,31.215,25.522,32.635,23.592,33.196z
				 M34.591,24.842c0,0.211-0.172,0.382-0.383,0.382H31.44v2.77c0,0.211-0.172,0.383-0.381,0.383h-0.789
				c-0.212,0-0.384-0.172-0.384-0.383v-2.77h-2.766c-0.211,0-0.383-0.17-0.383-0.382v-0.787c0-0.211,0.172-0.384,0.383-0.384h2.766
				v-2.767c0-0.212,0.172-0.382,0.384-0.382h0.789c0.209,0,0.381,0.17,0.381,0.382v2.767h2.768c0.21,0,0.382,0.171,0.382,0.383
				L34.591,24.842L34.591,24.842z"/>
		</g>
	</g>
</g>
</svg>
