<?xml version="1.0" encoding="utf-8"?>
<!-- Generator: Adobe Illustrator 16.0.0, SVG Export Plug-In . SVG Version: 6.00 Build 0)  -->
<!DOCTYPE svg PUBLIC "-//W3C//DTD SVG 1.1//EN" "http://www.w3.org/Graphics/SVG/1.1/DTD/svg11.dtd">
<svg version="1.1" id="Layer_1" xmlns="http://www.w3.org/2000/svg" xmlns:xlink="http://www.w3.org/1999/xlink" x="0px" y="0px"
	 width="52px" height="50px" viewBox="0 0 52 50" enable-background="new 0 0 52 50" xml:space="preserve">
<g>
	<g>
		<path fill="#29C5F6" d="M24.09,8.728c-9.031,0-16.379,7.348-16.379,16.379c0,9.031,7.348,16.379,16.379,16.379
			s16.379-7.348,16.379-16.379C40.469,16.076,33.122,8.728,24.09,8.728z M31.396,21.358c0.007,0.163,0.011,0.326,0.011,0.489
			c0,4.982-3.791,10.725-10.727,10.725c-2.129,0-4.11-0.623-5.778-1.693c0.295,0.035,0.595,0.053,0.899,0.053
			c1.767,0,3.392-0.603,4.682-1.614c-1.649-0.03-3.042-1.12-3.521-2.618c0.229,0.044,0.467,0.068,0.709,0.068
			c0.344,0,0.677-0.045,0.993-0.131c-1.725-0.346-3.023-1.869-3.023-3.697c0-0.015,0-0.032,0.001-0.047
			c0.508,0.282,1.089,0.452,1.706,0.471c-1.011-0.675-1.676-1.83-1.676-3.137c0-0.692,0.186-1.339,0.51-1.896
			c1.858,2.281,4.638,3.781,7.77,3.94c-0.064-0.276-0.097-0.564-0.097-0.86c0-2.082,1.688-3.77,3.77-3.77
			c1.084,0,2.062,0.458,2.752,1.19c0.859-0.169,1.664-0.482,2.395-0.916c-0.283,0.881-0.88,1.619-1.66,2.086
			c0.763-0.091,1.492-0.293,2.165-0.593C32.772,20.164,32.134,20.828,31.396,21.358z"/>
	</g>
</g>
</svg>
