<?xml version="1.0" encoding="utf-8"?>
<!-- Generator: Adobe Illustrator 16.0.0, SVG Export Plug-In . SVG Version: 6.00 Build 0)  -->
<!DOCTYPE svg PUBLIC "-//W3C//DTD SVG 1.1//EN" "http://www.w3.org/Graphics/SVG/1.1/DTD/svg11.dtd">
<svg version="1.1" id="Layer_1" xmlns="http://www.w3.org/2000/svg" xmlns:xlink="http://www.w3.org/1999/xlink" x="0px" y="0px"
	 width="114px" height="110px" viewBox="0 0 114 110" enable-background="new 0 0 114 110" xml:space="preserve">
<g>
	<path fill="#29ABE2" d="M-54.519,67.192l12.599,12.599l23.115-23.115l-12.598-12.598L-54.519,67.192z M-4.155,49.889l-5.36-5.361
		c-1.02,0.557-2.189,0.875-3.434,0.875c-3.966,0-7.182-3.216-7.182-7.182c0-1.244,0.318-2.414,0.876-3.435l-5.363-5.361
		c-1.396-1.396-3.681-1.396-5.077,0l-39.051,39.053c-1.395,1.396-1.395,3.68,0,5.076l5.364,5.362
		c1.019-0.557,2.19-0.873,3.433-0.873c3.966,0,7.182,3.215,7.182,7.178c0,1.246-0.316,2.418-0.874,3.438l5.361,5.361
		c1.397,1.396,3.681,1.396,5.077,0l39.051-39.052C-2.758,53.571-2.758,51.288-4.155,49.889z M-41.92,85.555l-18.359-18.363
		l28.877-28.876l18.36,18.36L-41.92,85.555z"/>
</g>
<path fill="#29ABE2" d="M72.151,51.545c6.289,0,11.327-5.075,11.327-11.363c0-6.289-5.038-11.364-11.327-11.364
	c-6.288,0-11.364,5.075-11.364,11.364C60.788,46.47,65.863,51.545,72.151,51.545z M41.849,51.545
	c6.288,0,11.327-5.075,11.327-11.363c0-6.289-5.039-11.364-11.327-11.364c-6.289,0-11.364,5.075-11.364,11.364
	C30.484,46.47,35.56,51.545,41.849,51.545z M41.849,59.121c-8.827,0-26.516,4.432-26.516,13.258v9.469h53.031v-9.469
	C68.364,63.553,50.674,59.121,41.849,59.121z M72.151,59.121c-1.099,0-2.349,0.075-3.677,0.189
	c4.395,3.185,7.465,7.461,7.465,13.069v9.469h22.728v-9.469C98.667,63.553,80.978,59.121,72.151,59.121z"/>
</svg>
