<?xml version="1.0" encoding="utf-8"?>
<!-- Generator: Adobe Illustrator 16.0.0, SVG Export Plug-In . SVG Version: 6.00 Build 0)  -->
<!DOCTYPE svg PUBLIC "-//W3C//DTD SVG 1.1//EN" "http://www.w3.org/Graphics/SVG/1.1/DTD/svg11.dtd">
<svg version="1.1" id="Layer_1" xmlns="http://www.w3.org/2000/svg" xmlns:xlink="http://www.w3.org/1999/xlink" x="0px" y="0px"
	 width="114px" height="110px" viewBox="0 0 114 110" enable-background="new 0 0 114 110" xml:space="preserve">
<g>
	<path fill="#29ABE2" d="M42.481,63.525l12.599,12.6L78.195,53.01L65.598,40.412L42.481,63.525z M92.845,46.223l-5.36-5.361
		c-1.02,0.557-2.189,0.875-3.434,0.875c-3.966,0-7.182-3.216-7.182-7.182c0-1.244,0.318-2.414,0.876-3.435l-5.363-5.361
		c-1.396-1.396-3.681-1.396-5.077,0L28.254,64.812c-1.395,1.396-1.395,3.68,0,5.076l5.364,5.362c1.019-0.558,2.19-0.874,3.433-0.874
		c3.966,0,7.182,3.216,7.182,7.178c0,1.246-0.316,2.418-0.874,3.438l5.361,5.362c1.397,1.396,3.681,1.396,5.077,0l39.051-39.053
		C94.242,49.904,94.242,47.621,92.845,46.223z M55.08,81.888L36.721,63.525l28.877-28.876l18.36,18.36L55.08,81.888z"/>
</g>
</svg>
