<?xml version="1.0" encoding="utf-8"?>
<!-- Generator: Adobe Illustrator 16.0.0, SVG Export Plug-In . SVG Version: 6.00 Build 0)  -->
<!DOCTYPE svg PUBLIC "-//W3C//DTD SVG 1.1//EN" "http://www.w3.org/Graphics/SVG/1.1/DTD/svg11.dtd">
<svg version="1.1" id="Layer_1" xmlns="http://www.w3.org/2000/svg" xmlns:xlink="http://www.w3.org/1999/xlink" x="0px" y="0px"
	 width="125px" height="26px" viewBox="0 0 125 26" enable-background="new 0 0 125 26" xml:space="preserve">
<g>
	<path d="M12.758,15.83c0-0.659-0.216-1.166-0.646-1.517c-0.431-0.351-1.213-0.723-2.348-1.122
		c-2.292-0.744-3.992-1.536-5.104-2.378C3.547,9.972,2.992,8.762,2.992,7.179c0-1.547,0.647-2.799,1.94-3.753
		C6.226,2.47,7.87,1.992,9.866,1.992c2.105,0,3.8,0.493,5.086,1.478c1.285,0.984,1.906,2.373,1.864,4.167l-0.026,0.076h-4.16
		c0-0.87-0.237-1.503-0.711-1.896c-0.472-0.392-1.188-0.589-2.142-0.589c-0.779,0-1.392,0.19-1.84,0.571
		C7.49,6.178,7.265,6.647,7.265,7.206c0,0.541,0.231,0.974,0.692,1.299c0.461,0.326,1.32,0.734,2.581,1.225
		c2.139,0.634,3.759,1.408,4.857,2.322c1.099,0.912,1.648,2.163,1.648,3.754c0,1.622-0.633,2.893-1.902,3.81
		c-1.269,0.919-2.951,1.377-5.048,1.377c-2.089,0-3.858-0.493-5.308-1.479c-1.451-0.984-2.154-2.535-2.112-4.646l0.025-0.076h4.173
		c0,1.072,0.264,1.836,0.792,2.289c0.528,0.452,1.338,0.676,2.429,0.676c0.896,0,1.563-0.177,2.004-0.53
		C12.538,16.87,12.758,16.404,12.758,15.83z"/>
	<path d="M30.534,14.156c0,2.062-0.466,3.718-1.396,4.966c-0.929,1.246-2.241,1.87-3.932,1.87c-0.659,0-1.245-0.127-1.756-0.381
		c-0.512-0.254-0.958-0.623-1.339-1.103V26h-4.287V7.001h4.047L21.999,8.5c0.38-0.559,0.835-0.991,1.363-1.294
		c0.529-0.305,1.135-0.457,1.821-0.457c1.699,0,3.016,0.655,3.951,1.965c0.934,1.312,1.401,3.037,1.401,5.175V14.156z M26.26,13.889
		c0-1.158-0.169-2.089-0.507-2.79c-0.338-0.703-0.879-1.054-1.624-1.054c-0.482,0-0.891,0.089-1.225,0.267
		c-0.333,0.177-0.597,0.436-0.793,0.773v5.733c0.204,0.296,0.472,0.515,0.807,0.658c0.333,0.144,0.746,0.216,1.236,0.216
		c0.752,0,1.291-0.309,1.617-0.932c0.326-0.621,0.489-1.491,0.489-2.605V13.889z"/>
	<path d="M30.554,13.737c0-2.063,0.583-3.743,1.75-5.042c1.168-1.297,2.796-1.946,4.885-1.946c2.097,0,3.728,0.649,4.894,1.946
		c1.167,1.299,1.75,2.979,1.75,5.042v0.266c0,2.072-0.583,3.753-1.75,5.049c-1.167,1.292-2.789,1.94-4.87,1.94
		c-2.105,0-3.741-0.648-4.909-1.94c-1.167-1.296-1.75-2.977-1.75-5.049V13.737z M34.842,14.003c0,1.151,0.179,2.053,0.538,2.707
		c0.36,0.655,0.971,0.983,1.833,0.983c0.837,0,1.438-0.328,1.802-0.989c0.363-0.66,0.545-1.56,0.545-2.701v-0.266
		c0-1.115-0.182-2.011-0.545-2.683c-0.364-0.672-0.973-1.008-1.826-1.008c-0.847,0-1.449,0.339-1.809,1.015
		c-0.359,0.676-0.538,1.569-0.538,2.676V14.003z"/>
	<path d="M48.37,7.001l0.165,1.928c0.449-0.685,1.002-1.22,1.662-1.604c0.66-0.384,1.396-0.576,2.207-0.576
		c1.345,0,2.395,0.457,3.152,1.37c0.756,0.912,1.135,2.364,1.135,4.35v8.256h-4.287v-8.269c0-0.87-0.14-1.49-0.418-1.857
		c-0.279-0.368-0.685-0.552-1.217-0.552c-0.458,0-0.868,0.081-1.231,0.241c-0.364,0.161-0.668,0.389-0.913,0.685v9.752H44.35V7.001
		H48.37z"/>
	<path d="M62.747,17.428h6.24v3.297H57.332v-2.384l6.099-8.042h-5.833V7.001h11.262v2.309L62.747,17.428z"/>
	<path d="M69.006,13.737c0-2.063,0.586-3.743,1.752-5.042c1.165-1.297,2.794-1.946,4.884-1.946c2.097,0,3.729,0.649,4.896,1.946
		c1.166,1.299,1.749,2.979,1.749,5.042v0.266c0,2.072-0.583,3.753-1.749,5.049c-1.167,1.292-2.791,1.94-4.872,1.94
		c-2.104,0-3.742-0.648-4.907-1.94c-1.166-1.296-1.752-2.977-1.752-5.049V13.737z M73.293,14.003c0,1.151,0.181,2.053,0.541,2.707
		c0.358,0.655,0.969,0.983,1.831,0.983c0.839,0,1.438-0.328,1.802-0.989c0.364-0.66,0.546-1.56,0.546-2.701v-0.266
		c0-1.115-0.182-2.011-0.546-2.683c-0.364-0.672-0.971-1.008-1.825-1.008c-0.848,0-1.449,0.339-1.808,1.015
		c-0.36,0.676-0.541,1.569-0.541,2.676V14.003z"/>
	<path d="M90.463,10.656l-1.395-0.014c-0.493,0-0.894,0.091-1.207,0.272c-0.311,0.183-0.545,0.438-0.696,0.768v9.042h-4.288V7.001
		h4.034l0.152,2.018c0.287-0.718,0.668-1.276,1.141-1.674c0.474-0.397,1.027-0.596,1.662-0.596c0.193,0,0.367,0.012,0.521,0.038
		c0.152,0.024,0.312,0.063,0.48,0.113L90.463,10.656z"/>
	<path fill="#00838D" d="M100.742,15.184h0.076l4.172-12.924h5.671v18.465h-4.287V8.829l-0.075-0.013l-4.071,11.908h-2.881
		L95.352,8.994l-0.074,0.013v11.718H90.99V2.259h5.618L100.742,15.184z"/>
	<path fill="#00838D" d="M118.14,20.992c-2.08,0-3.711-0.631-4.89-1.891c-1.179-1.258-1.771-2.854-1.771-4.781v-0.482
		c0-2.096,0.556-3.805,1.668-5.125c1.113-1.318,2.721-1.973,4.826-1.965c1.852,0,3.288,0.554,4.306,1.661
		c1.019,1.109,1.529,2.626,1.529,4.553v2.246h-7.863l-0.026,0.075c0.067,0.717,0.334,1.3,0.801,1.743
		c0.464,0.444,1.131,0.666,2.003,0.666c0.819,0,1.502-0.066,2.048-0.201c0.546-0.137,1.169-0.352,1.87-0.647l1.027,2.611
		c-0.591,0.432-1.387,0.796-2.383,1.092C120.287,20.843,119.237,20.992,118.14,20.992z M117.974,10.046
		c-0.686,0-1.189,0.217-1.515,0.653c-0.325,0.436-0.514,1.026-0.565,1.77l0.025,0.063h3.704v-0.33c0-0.71-0.124-1.246-0.375-1.611
		C118.999,10.228,118.574,10.046,117.974,10.046z"/>
</g>
</svg>
