<?xml version="1.0" encoding="utf-8"?>
<!-- Generator: Adobe Illustrator 16.0.0, SVG Export Plug-In . SVG Version: 6.00 Build 0)  -->
<!DOCTYPE svg PUBLIC "-//W3C//DTD SVG 1.1//EN" "http://www.w3.org/Graphics/SVG/1.1/DTD/svg11.dtd">
<svg version="1.1" id="Layer_1" xmlns="http://www.w3.org/2000/svg" xmlns:xlink="http://www.w3.org/1999/xlink" x="0px" y="0px"
	 width="99.334px" height="94px" viewBox="0 0 99.334 94" enable-background="new 0 0 99.334 94" xml:space="preserve">
<g>
	<g>
		<path fill="#29ABE2" d="M85.925,13.665c0.005-0.35-0.131-0.687-0.379-0.935c-0.246-0.247-0.585-0.383-0.933-0.378
			c-0.684,0.012-16.801,0.386-27.178,10.764L44.276,36.276c-3.06-1.078-13.48-3.101-28.149,11.568
			c-0.445,0.446-0.503,1.15-0.137,1.664c0.042,0.06,0.088,0.112,0.139,0.163c0.385,0.383,0.98,0.491,1.482,0.245
			c0.1-0.049,9.453-4.568,14.42-1.395l-3.258,3.256c-0.079,0.08-0.147,0.169-0.203,0.266c-0.137,0.237-3.287,5.897,4.241,13.423
			c7.525,7.528,13.187,4.378,13.423,4.241c0.098-0.057,0.186-0.125,0.265-0.204l3.256-3.256c3.173,4.966-1.345,14.319-1.394,14.42
			c-0.247,0.5-0.142,1.097,0.244,1.482c0.009,0.007,0.016,0.014,0.024,0.022c0.506,0.484,1.308,0.478,1.806-0.021
			c0.025-0.024,0.048-0.05,0.07-0.075C65.095,67.444,63.079,57.054,62,54l13.16-13.159C85.537,30.465,85.913,14.348,85.925,13.665z
			 M69.217,39.322c-2.832,2.833-7.426,2.833-10.259,0s-2.833-7.424,0.001-10.26c2.832-2.831,7.426-2.831,10.258,0
			C72.05,31.896,72.05,36.489,69.217,39.322z"/>
		<path fill="#29ABE2" d="M32.703,73.21c-2.548,0.443-5.175,0.622-7.757,0.579c-0.221-0.004-0.445-0.269-0.445-0.447
			c0-0.391,0.011-0.962,0.021-1.352c0.014-0.572,0.038-1.144,0.068-1.714c0.072-1.294,0.179-2.594,0.368-3.877
			c0.334-2.245,0.84-4.446,1.677-6.561c0.115-0.288,0.242-0.569,0.347-0.862c-2.349,1.005-4.182,3.005-5.474,5.163
			c-1.258,2.098-2.07,4.443-2.521,6.841c-0.266,1.415-0.406,2.854-0.426,4.292c-0.01,0.796-0.061,1.76,0.216,2.522
			c0.393,1.084,1.4,1.805,2.541,1.883c1.025,0.07,2.054,0.055,3.08-0.012c4.661-0.308,9.644-1.93,12.917-5.4
			c0.806-0.899,1.508-1.85,1.997-2.96c-1.165,0.429-2.296,0.904-3.498,1.227C34.785,72.81,33.751,73.029,32.703,73.21z"/>
	</g>
</g>
</svg>
