<?xml version="1.0" encoding="utf-8"?>
<!-- Generator: Adobe Illustrator 16.0.0, SVG Export Plug-In . SVG Version: 6.00 Build 0)  -->
<!DOCTYPE svg PUBLIC "-//W3C//DTD SVG 1.1//EN" "http://www.w3.org/Graphics/SVG/1.1/DTD/svg11.dtd">
<svg version="1.1" id="Layer_1" xmlns="http://www.w3.org/2000/svg" xmlns:xlink="http://www.w3.org/1999/xlink" x="0px" y="0px"
	 width="109px" height="108.5px" viewBox="0 0 109 108.5" enable-background="new 0 0 109 108.5" xml:space="preserve">
<circle fill="#FBB03B" cx="53.643" cy="53.413" r="50.364"/>
<path opacity="0.08" d="M53.643,3.05c27.815,0,50.364,22.548,50.364,50.363c0,27.816-22.549,50.364-50.364,50.364V3.05z"/>
<g>
	<g>
		<path fill="#FFFFFF" d="M83.243,26.664c0.004-0.302-0.112-0.593-0.327-0.807c-0.212-0.213-0.505-0.331-0.805-0.326
			c-0.59,0.01-14.499,0.333-23.454,9.29L47.301,46.177c-2.641-0.93-11.634-2.676-24.294,9.983c-0.384,0.385-0.434,0.993-0.118,1.436
			c0.037,0.052,0.076,0.097,0.12,0.141c0.332,0.331,0.847,0.424,1.279,0.211c0.086-0.042,8.158-3.942,12.444-1.204l-2.812,2.81
			c-0.068,0.069-0.127,0.146-0.175,0.229c-0.118,0.205-2.837,5.089,3.66,11.584c6.494,6.497,11.38,3.778,11.584,3.661
			c0.084-0.049,0.16-0.108,0.229-0.176l2.81-2.81c2.738,4.286-1.16,12.358-1.202,12.445c-0.214,0.431-0.123,0.946,0.21,1.279
			c0.008,0.006,0.014,0.012,0.021,0.02c0.437,0.418,1.128,0.412,1.558-0.018c0.022-0.021,0.042-0.043,0.062-0.065
			c12.59-12.627,10.851-21.594,9.919-24.229l11.357-11.356C82.908,41.162,83.233,27.252,83.243,26.664z M68.824,48.805
			c-2.444,2.445-6.408,2.445-8.854,0s-2.445-6.407,0.001-8.854c2.444-2.443,6.408-2.443,8.853,0
			C71.27,42.397,71.27,46.36,68.824,48.805z"/>
		<path fill="#FFFFFF" d="M37.312,78.052c-2.199,0.382-4.466,0.537-6.694,0.5c-0.19-0.003-0.384-0.232-0.384-0.386
			c0-0.337,0.009-0.831,0.018-1.167c0.012-0.494,0.032-0.987,0.059-1.479c0.062-1.117,0.154-2.239,0.318-3.346
			c0.288-1.938,0.725-3.837,1.446-5.662c0.1-0.248,0.209-0.491,0.3-0.744c-2.027,0.867-3.609,2.594-4.725,4.456
			c-1.085,1.81-1.786,3.834-2.176,5.903c-0.229,1.221-0.351,2.463-0.367,3.704c-0.009,0.687-0.053,1.519,0.187,2.177
			c0.339,0.935,1.208,1.557,2.192,1.625c0.885,0.061,1.772,0.047,2.658-0.01c4.022-0.265,8.322-1.665,11.147-4.66
			c0.695-0.776,1.302-1.596,1.724-2.555c-1.006,0.37-1.981,0.78-3.019,1.059C39.109,77.706,38.217,77.895,37.312,78.052z"/>
	</g>
</g>
</svg>
